HIERARCHY
ROOT Joint1
{
	OFFSET 0.000000 0.000000 0.000000
	CHANNELS 6 Xposition Yposition Zposition Xrotation Yrotation Zrotation
	JOINT Joint2
	{
		OFFSET -0.000000 0.000000 1.456275
		CHANNELS 6 Xposition Yposition Zposition Xrotation Yrotation Zrotation
		JOINT Joint3
		{
			OFFSET -0.000000 0.000002 1.471446
			CHANNELS 6 Xposition Yposition Zposition Xrotation Yrotation Zrotation
			JOINT Joint4
			{
				OFFSET 0.625745 0.000000 0.917755
				CHANNELS 6 Xposition Yposition Zposition Xrotation Yrotation Zrotation
				JOINT Joint5
				{
					OFFSET -0.629534 0.000001 0.940221
					CHANNELS 6 Xposition Yposition Zposition Xrotation Yrotation Zrotation
					JOINT Joint6
					{
						OFFSET -0.000001 0.113772 1.960660
						CHANNELS 6 Xposition Yposition Zposition Xrotation Yrotation Zrotation
						JOINT Joint7
						{
							OFFSET -0.669733 -0.113771 0.388340
							CHANNELS 6 Xposition Yposition Zposition Xrotation Yrotation Zrotation
							End Site
							{
								OFFSET 0.005509 0.005509 0.438980
							}
						}
					}
				}
			}
		}
	}
}
MOTION
Frames: 19
Frame Time: 0.041667
0.000000 0.000000 0.000000 -0.000000 1.019410 -0.018879 -0.000000 0.000000 1.456275 0.000000 -44.975812 0.000000 -0.000000 0.000002 1.471446 0.000000 -1.133460 -0.016537 0.625744 0.000000 0.917755 0.000004 135.010328 -0.000001 -0.629534 0.000001 0.940221 0.000000 1.709737 0.004098 -0.000001 0.113772 1.960660 -88.314810 89.982579 -0.007176 -0.669733 -0.113771 0.388339 -0.704757 3.566197 134.940824 
0.000000 0.000000 0.000000 -0.000000 1.019410 -0.073228 -0.000000 -0.000000 1.456275 0.000000 -44.971649 0.000000 -0.000000 0.000002 1.471446 -0.000000 -1.133458 0.041139 0.625745 0.000000 0.917755 0.000004 134.969811 -0.000001 -0.629533 0.000001 0.940221 -0.000000 1.709736 0.060149 -0.000001 0.113772 1.960660 -88.462821 89.998835 -0.105064 -0.669733 -0.113771 0.388339 -0.703423 3.566195 134.865719 
0.000000 0.000000 0.000000 -0.000000 1.019410 -0.172096 -0.000000 -0.000000 1.456275 0.000000 -44.964074 0.000000 -0.000000 0.000002 1.471446 0.000000 -1.133461 0.146060 0.625745 0.000000 0.917755 0.000004 134.896127 -0.000001 -0.629534 0.000001 0.940221 -0.000000 1.709736 0.162116 -0.000000 0.113772 1.960660 -88.297387 90.028416 0.004230 -0.669733 -0.113771 0.388339 -0.700996 3.566187 134.729074 
0.000000 0.000000 0.000000 -0.000000 1.019410 -0.322265 -0.000000 0.000000 1.456275 0.000000 -44.952562 -0.000000 -0.000000 0.000002 1.471446 -0.000000 -1.133457 0.305423 0.625745 0.000000 0.917755 0.000004 134.784166 -0.000001 -0.629534 0.000001 0.940221 0.000000 1.709737 0.316991 -0.000000 0.113772 1.960661 -88.301389 90.073338 0.001666 -0.669733 -0.113771 0.388340 -0.697310 3.566162 134.521546 
0.000000 0.000000 0.000000 -0.000000 1.019410 -0.530516 -0.000000 0.000000 1.456275 -0.000000 -44.936607 0.000000 -0.000000 0.000002 1.471446 0.000000 -1.133461 0.526424 0.625745 0.000000 0.917755 0.000004 134.628916 -0.000001 -0.629534 0.000001 0.940221 -0.000000 1.709736 0.531768 -0.000001 0.113772 1.960660 -88.302537 90.135650 0.000885 -0.669733 -0.113771 0.388340 -0.692198 3.566107 134.233749 
0.000000 0.000000 0.000000 -0.000000 1.019410 -0.803629 -0.000000 0.000000 1.456275 -0.000000 -44.915665 0.000000 -0.000000 0.000002 1.471446 -0.000000 -1.133459 0.816258 0.625744 0.000000 0.917755 0.000004 134.425322 -0.000001 -0.629534 0.000001 0.940221 -0.000000 1.709736 0.813440 -0.000001 0.113772 1.960660 -88.303035 90.217360 0.000569 -0.669733 -0.113771 0.388339 -0.685495 3.565996 133.856299 
0.000000 0.000000 0.000000 -0.000000 1.019410 -1.148386 -0.000000 0.000000 1.456275 -0.000000 -44.889260 0.000000 -0.000000 0.000002 1.471446 0.000000 -1.133461 1.182121 0.625744 0.000000 0.917755 0.000004 134.168329 -0.000001 -0.629534 0.000001 0.940221 -0.000000 1.709736 1.169000 -0.000001 0.113772 1.960660 -88.303308 90.320509 0.000395 -0.669733 -0.113771 0.388340 -0.677035 3.565792 133.379852 
0.000000 0.000000 0.000000 -0.000000 1.019410 -1.571566 -0.000000 0.000000 1.456275 0.000000 -44.856823 -0.000000 -0.000000 0.000002 1.471446 -0.000000 -1.133459 1.631209 0.625745 0.000000 0.917755 0.000004 133.852884 -0.000001 -0.629534 0.000001 0.940221 -0.000000 1.709737 1.605442 -0.000001 0.113772 1.960660 -88.303472 90.447120 0.000273 -0.669733 -0.113771 0.388340 -0.666653 3.565446 132.795038 
0.000000 0.000000 0.000000 -0.000000 1.019410 -2.079951 -0.000000 -0.000000 1.456275 -0.000000 -44.817864 -0.000000 -0.000000 0.000002 1.471446 0.000000 -1.133464 2.170719 0.625745 0.000000 0.917755 0.000003 133.473890 -0.000001 -0.629533 0.000001 0.940221 0.000000 1.709737 2.129758 -0.000001 0.113772 1.960660 -88.303568 90.599222 0.000206 -0.669733 -0.113771 0.388339 -0.654186 3.564890 132.092443 
0.000000 0.000000 0.000000 -0.000000 1.019410 -2.680321 -0.000000 -0.000000 1.456275 -0.000000 -44.771856 -0.000000 -0.000000 0.000002 1.471446 0.000000 -1.133460 2.807846 0.625744 0.000000 0.917755 0.000004 133.026363 -0.000001 -0.629534 0.000001 0.940221 -0.000000 1.709736 2.748943 -0.000001 0.113772 1.960661 -88.303643 90.778842 0.000158 -0.669733 -0.113771 0.388339 -0.639474 3.564038 131.262753 
0.000000 0.000000 0.000000 -0.000000 1.019410 -3.379458 -0.000000 0.000000 1.456275 0.000000 -44.718280 0.000000 -0.000000 0.000002 1.471446 0.000000 -1.133460 3.549786 0.625744 0.000000 0.917755 0.000004 132.505192 -0.000001 -0.629534 0.000001 0.940221 -0.000000 1.709736 3.469989 -0.000001 0.113772 1.960661 -88.303698 90.988024 0.000126 -0.669733 -0.113771 0.388339 -0.622359 3.562778 130.296568 
0.000000 0.000000 0.000000 -0.000000 1.019410 -4.175662 -0.000000 0.000000 1.456275 0.000000 -44.657262 0.000000 -0.000000 0.000002 1.471446 0.000000 -1.133462 4.394737 0.625744 0.000000 0.917755 0.000004 131.911662 -0.000001 -0.629534 0.000001 0.940221 -0.000000 1.709737 4.291145 -0.000001 0.113772 1.960660 -88.303732 91.226247 0.000102 -0.669733 -0.113771 0.388340 -0.602897 3.560991 129.196238 
0.000000 0.000000 0.000000 -0.000000 1.019410 -5.033323 -0.000000 0.000000 1.456275 -0.000000 -44.591529 0.000000 -0.000000 0.000002 1.471446 0.000000 -1.133459 5.304905 0.625745 0.000000 0.917755 0.000004 131.272315 -0.000001 -0.629533 0.000001 0.940221 -0.000000 1.709736 5.175682 -0.000001 0.113772 1.960661 -88.303759 91.482850 0.000080 -0.669733 -0.113771 0.388340 -0.581975 3.558650 128.010982 
0.000000 0.000000 0.000000 -0.000000 1.019410 -5.908347 -0.000000 0.000000 1.456275 -0.000000 -44.524473 0.000000 -0.000001 0.000002 1.471446 0.000000 -1.133462 6.233502 0.625745 0.000000 0.917755 0.000004 130.620032 -0.000001 -0.629534 0.000001 0.940221 -0.000000 1.709737 6.078129 -0.000001 0.113772 1.960660 -88.303786 91.744645 0.000078 -0.669733 -0.113771 0.388340 -0.560685 3.555818 126.801724 
0.000000 0.000000 0.000000 -0.000000 1.019410 -6.756644 -0.000000 0.000000 1.456275 -0.000001 -44.459463 -0.000000 -0.000000 0.000002 1.471446 0.000001 -1.133460 7.133734 0.625745 0.000000 0.917755 0.000004 129.987680 -0.000001 -0.629534 0.000001 0.940221 -0.000000 1.709736 6.953009 -0.000001 0.113772 1.960660 -88.303807 91.998448 0.000065 -0.669733 -0.113771 0.388340 -0.540107 3.552645 125.629418 
0.000000 0.000000 0.000000 -0.000000 1.019410 -7.551828 -0.000000 -0.000000 1.456275 0.000000 -44.398525 0.000001 -0.000000 0.000002 1.471446 0.000000 -1.133462 7.977600 0.625745 0.000000 0.917755 0.000004 129.394915 -0.000001 -0.629534 0.000001 0.940221 -0.000000 1.709736 7.773111 -0.000000 0.113772 1.960661 -88.303807 92.236357 0.000059 -0.669733 -0.113771 0.388339 -0.520880 3.549288 124.530509 
0.000000 0.000000 0.000000 -0.000000 1.019410 -8.338330 -0.000000 0.000000 1.456275 0.000000 -44.338255 -0.000001 -0.000000 0.000002 1.471446 0.000000 -1.133458 8.812253 0.625745 0.000000 0.917755 0.000004 128.808625 -0.000002 -0.629533 0.000001 0.940221 -0.000000 1.709737 8.584259 -0.000001 0.113772 1.960660 -88.303821 92.471670 0.000047 -0.669733 -0.113771 0.388341 -0.501930 3.545607 123.443621 
0.000000 0.000000 0.000000 -0.000000 1.019410 -9.178284 -0.000000 0.000000 1.456275 0.000001 -44.273884 -0.000001 -0.000000 0.000002 1.471446 0.000000 -1.133459 9.703634 0.625745 0.000000 0.917755 0.000004 128.182488 -0.000002 -0.629534 0.000001 0.940220 -0.000000 1.709736 9.450537 -0.000000 0.113772 1.960660 -88.303821 92.722980 0.000036 -0.669733 -0.113771 0.388341 -0.481773 3.541281 122.282844 
0.000000 0.000000 0.000000 -0.000000 1.019410 -10.133832 -0.000000 0.000000 1.456275 0.000000 -44.200654 0.000001 -0.000000 0.000002 1.471446 0.000001 -1.133457 10.717684 0.625745 0.000000 0.917755 0.000005 127.470181 -0.000000 -0.629533 0.000001 0.940221 -0.000000 1.709737 10.436031 -0.000001 0.113772 1.960660 -88.303807 93.008865 0.000044 -0.669733 -0.113771 0.388340 -0.458955 3.535864 120.962350 
